<svg 
 xmlns="http://www.w3.org/2000/svg"
 xmlns:xlink="http://www.w3.org/1999/xlink"
 width="103px" height="35px">
<path fill-rule="evenodd"  fill="rgb(203, 0, 61)"
 d="M84.426,20.968 L84.426,21.261 L84.426,22.709 C84.426,25.672 85.300,28.179 87.037,30.223 C88.776,32.273 90.926,33.295 93.498,33.295 C95.331,33.295 96.856,33.047 98.093,32.551 C99.324,32.049 100.377,31.298 101.251,30.307 L101.908,31.259 C100.940,32.328 99.764,33.141 98.388,33.698 C97.002,34.247 95.369,34.517 93.498,34.525 C90.703,34.517 88.290,33.387 86.253,31.128 C84.219,28.869 83.205,26.067 83.205,22.709 L83.205,21.261 C83.205,17.741 84.186,14.824 86.152,12.518 C88.118,10.211 90.541,9.058 93.426,9.058 C96.199,9.058 98.449,9.971 100.198,11.783 C101.947,13.593 102.812,16.031 102.812,19.080 L102.812,20.968 L84.426,20.968 ZM101.591,18.994 C101.591,16.494 100.833,14.421 99.324,12.765 C97.815,11.117 95.849,10.289 93.426,10.289 C90.997,10.289 88.970,11.170 87.354,12.951 C85.734,14.723 84.821,16.944 84.614,19.606 L84.682,19.737 L101.591,19.737 L101.591,18.994 ZM78.933,10.265 C76.744,10.265 74.966,10.970 73.596,12.385 C72.226,13.794 71.335,15.658 70.934,17.973 L70.934,32.823 L74.623,32.823 L74.623,34.046 L66.011,34.046 L66.011,32.823 L69.703,32.823 L69.703,10.966 L66.011,10.966 L66.011,9.744 L69.703,9.744 L70.701,9.744 L70.934,13.778 L70.934,14.614 C71.607,12.866 72.621,11.496 73.965,10.520 C75.312,9.545 76.967,9.058 78.933,9.058 C79.283,9.058 79.600,9.090 79.895,9.144 C80.187,9.197 80.442,9.252 80.653,9.314 L80.520,10.397 L78.933,10.265 ZM52.548,34.525 C49.361,34.517 46.767,33.381 44.772,31.097 C42.783,28.814 41.782,25.867 41.782,22.261 L41.782,21.300 C41.782,17.710 42.774,14.769 44.762,12.486 C46.751,10.204 49.329,9.058 52.502,9.058 C55.699,9.058 58.280,10.204 60.272,12.486 C62.261,14.769 63.252,17.710 63.252,21.300 L63.252,22.261 C63.252,25.867 62.261,28.814 60.272,31.097 C58.280,33.381 55.712,34.517 52.548,34.525 ZM62.027,21.300 C62.027,18.298 61.159,15.705 59.420,13.539 C57.678,11.372 55.382,10.289 52.502,10.289 C49.614,10.289 47.317,11.372 45.591,13.539 C43.865,15.705 43.007,18.298 43.007,21.300 L43.007,22.261 C43.007,25.339 43.865,27.948 45.591,30.092 C47.317,32.227 49.630,33.295 52.548,33.295 C55.417,33.295 57.717,32.227 59.443,30.075 C61.169,27.931 62.027,25.324 62.027,22.261 L62.027,21.300 ZM36.853,34.525 C35.205,34.517 33.951,33.983 33.099,32.916 C32.251,31.840 31.817,30.106 31.817,27.722 L31.817,10.990 L27.283,10.990 L27.283,9.744 L31.817,9.744 L31.817,2.899 L33.070,2.899 L33.070,9.744 L39.097,9.744 L39.097,10.990 L33.070,10.990 L33.070,27.722 C33.070,29.727 33.404,31.159 34.084,32.018 C34.764,32.869 35.661,33.295 36.785,33.295 C37.264,33.295 37.698,33.279 38.077,33.248 C38.456,33.225 38.974,33.172 39.638,33.094 L39.865,34.208 C39.415,34.324 38.952,34.409 38.472,34.456 C37.1000,34.501 37.459,34.517 36.853,34.525 ZM12.505,16.588 C16.165,17.554 18.927,18.738 20.793,20.139 C22.658,21.532 23.594,23.522 23.594,26.090 C23.594,28.705 22.525,30.764 20.398,32.266 C18.260,33.766 15.601,34.517 12.395,34.525 C10.183,34.517 8.062,34.107 6.034,33.286 C4.000,32.459 2.313,31.175 0.966,29.418 L0.966,23.979 L2.190,23.979 L2.190,28.900 C3.375,30.440 4.875,31.560 6.701,32.258 C8.535,32.947 10.432,33.295 12.395,33.295 C15.297,33.295 17.680,32.629 19.546,31.306 C21.411,29.975 22.347,28.249 22.347,26.137 C22.347,24.063 21.589,22.408 20.064,21.169 C18.548,19.930 15.919,18.793 12.165,17.763 C8.405,16.758 5.649,15.605 3.900,14.313 C2.158,13.021 1.283,11.132 1.283,8.656 C1.283,6.188 2.313,4.222 4.363,2.760 C6.423,1.297 9.046,0.562 12.233,0.562 C14.711,0.562 16.877,0.987 18.726,1.838 C20.582,2.697 22.046,3.974 23.115,5.684 L23.115,10.876 L21.891,10.876 L21.891,6.249 C20.925,4.786 19.630,3.673 18.008,2.922 C16.382,2.164 14.455,1.785 12.233,1.785 C9.240,1.785 6.870,2.450 5.130,3.789 C3.382,5.127 2.507,6.736 2.507,8.610 C2.507,10.482 3.226,12.038 4.674,13.276 C6.122,14.521 8.729,15.619 12.505,16.588 Z"/>
</svg>