<svg xmlns="http://www.w3.org/2000/svg">
  <symbol id="icon-phone">
    <g width="20px" height="25px">
    <path fill-rule="evenodd"  fill="rgb(203, 0, 61)"
    d="M14.843,25.007 C14.721,25.007 14.604,24.993 14.497,24.965 C11.333,24.150 7.957,21.016 4.448,15.647 C0.941,10.281 -0.498,6.048 0.170,3.065 C0.482,1.676 4.511,0.157 4.551,0.142 C5.538,-0.219 6.645,0.148 6.964,0.884 C7.141,1.288 8.754,5.470 8.925,5.941 C9.122,6.481 8.904,7.159 8.340,7.754 C8.071,8.039 7.210,8.893 6.747,9.350 C6.989,9.909 7.590,11.151 8.884,13.126 C10.176,15.104 11.084,16.172 11.506,16.628 C12.154,16.455 13.362,16.132 13.758,16.040 C14.556,15.853 15.315,15.976 15.747,16.382 C16.144,16.753 19.377,20.014 19.671,20.325 C19.914,20.584 20.041,20.955 20.015,21.343 C19.980,21.835 19.718,22.307 19.274,22.671 C19.246,22.693 16.317,25.007 14.843,25.007 ZM5.373,1.306 C5.276,1.306 5.171,1.325 5.062,1.366 C3.894,1.790 1.755,2.908 1.542,3.349 C0.809,6.629 3.371,11.477 5.650,14.964 C7.928,18.450 11.372,22.793 14.849,23.694 C15.459,23.685 17.531,22.353 18.343,21.685 C18.622,21.458 18.629,21.232 18.600,21.175 C18.369,20.932 15.139,17.672 14.748,17.308 C14.726,17.293 14.422,17.239 14.101,17.314 C13.559,17.440 11.477,18.002 11.476,18.003 L11.084,18.108 L10.791,17.844 C10.744,17.801 9.615,16.769 7.682,13.810 C5.746,10.853 5.280,9.443 5.262,9.384 L5.143,9.021 L5.424,8.745 C5.425,8.744 6.916,7.276 7.284,6.887 C7.531,6.626 7.597,6.410 7.588,6.352 C7.429,5.915 5.827,1.757 5.659,1.379 C5.654,1.376 5.559,1.306 5.373,1.306 Z"/>
    </g>
  </symbol>
</svg>